<?xml version="1.0" encoding="UTF-8"?>
<svg xmlns="http://www.w3.org/2000/svg" xmlns:xlink="http://www.w3.org/1999/xlink" width="48" height="48" viewBox="0 0 48 48" version="1.1">
<g id="surface191040">
<path style=" stroke:none;fill-rule:nonzero;fill:rgb(20.392157%,59.607843%,85.882353%);fill-opacity:1;" d="M 41 4 L 7 4 C 5.894531 4 5 4.894531 5 6 L 5 14 C 5 15.105469 5.894531 16 7 16 L 41 16 C 42.105469 16 43 15.105469 43 14 L 43 6 C 43 4.894531 42.105469 4 41 4 M 41 18 L 7 18 C 5.894531 18 5 18.894531 5 20 L 5 28 C 5 29.105469 5.894531 30 7 30 L 41 30 C 42.105469 30 43 29.105469 43 28 L 43 20 C 43 18.894531 42.105469 18 41 18 M 41 32 L 7 32 C 5.894531 32 5 32.894531 5 34 L 5 42 C 5 43.105469 5.894531 44 7 44 L 41 44 C 42.105469 44 43 43.105469 43 42 L 43 34 C 43 32.894531 42.105469 32 41 32 "/>
<path style=" stroke:none;fill-rule:nonzero;fill:rgb(20.392157%,59.607843%,85.882353%);fill-opacity:1;" d="M 24 8 C 15.164062 8 8 15.164062 8 24 C 8 32.835938 15.164062 40 24 40 C 32.835938 40 40 32.835938 40 24 C 40 15.164062 32.835938 8 24 8 Z M 24 8 "/>
<path style=" stroke:none;fill-rule:nonzero;fill:rgb(100%,100%,100%);fill-opacity:1;" d="M 18.003906 26.390625 C 18.003906 25.984375 17.898438 25.675781 17.691406 25.46875 C 17.484375 25.261719 17.109375 25.046875 16.5625 24.824219 C 15.5625 24.445312 14.847656 24.003906 14.410156 23.492188 C 13.972656 22.984375 13.753906 22.386719 13.753906 21.691406 C 13.753906 20.855469 14.050781 20.179688 14.644531 19.671875 C 15.238281 19.164062 15.996094 18.910156 16.910156 18.910156 C 17.523438 18.910156 18.066406 19.039062 18.546875 19.296875 C 19.023438 19.554688 19.390625 19.917969 19.648438 20.386719 C 19.90625 20.855469 20.035156 21.390625 20.035156 21.988281 L 18.03125 21.988281 C 18.03125 21.523438 17.933594 21.167969 17.734375 20.925781 C 17.535156 20.679688 17.25 20.558594 16.878906 20.558594 C 16.527344 20.558594 16.253906 20.664062 16.058594 20.871094 C 15.859375 21.078125 15.761719 21.355469 15.761719 21.707031 C 15.761719 21.980469 15.871094 22.230469 16.089844 22.449219 C 16.308594 22.671875 16.695312 22.898438 17.253906 23.136719 C 18.222656 23.488281 18.929688 23.917969 19.367188 24.429688 C 19.808594 24.941406 20.027344 25.589844 20.027344 26.378906 C 20.027344 27.242188 19.753906 27.921875 19.203125 28.40625 C 18.652344 28.894531 17.902344 29.136719 16.953125 29.136719 C 16.308594 29.136719 15.726562 29.007812 15.195312 28.742188 C 14.667969 28.476562 14.253906 28.097656 13.953125 27.605469 C 13.65625 27.113281 13.507812 26.535156 13.507812 25.863281 L 15.523438 25.863281 C 15.523438 26.4375 15.636719 26.855469 15.859375 27.113281 C 16.082031 27.375 16.445312 27.503906 16.953125 27.503906 C 17.652344 27.503906 18.003906 27.132812 18.003906 26.390625 Z M 28.359375 24.796875 C 28.359375 26.441406 27.914062 27.636719 27.027344 28.386719 L 28.402344 29.613281 L 27.136719 30.777344 L 25.304688 29.101562 L 24.777344 29.136719 C 23.652344 29.136719 22.773438 28.753906 22.136719 27.988281 C 21.5 27.226562 21.179688 26.171875 21.175781 24.820312 L 21.175781 23.261719 C 21.175781 21.894531 21.492188 20.828125 22.125 20.058594 C 22.757812 19.292969 23.640625 18.910156 24.765625 18.910156 C 25.863281 18.910156 26.730469 19.277344 27.367188 20.015625 C 28.007812 20.753906 28.339844 21.789062 28.359375 23.125 Z M 26.34375 23.25 C 26.34375 22.34375 26.214844 21.675781 25.953125 21.242188 C 25.695312 20.808594 25.296875 20.59375 24.765625 20.59375 C 24.230469 20.59375 23.839844 20.804688 23.582031 21.222656 C 23.328125 21.644531 23.195312 22.285156 23.1875 23.148438 L 23.1875 24.796875 C 23.1875 25.707031 23.316406 26.378906 23.578125 26.8125 C 23.839844 27.246094 24.242188 27.460938 24.777344 27.460938 C 25.304688 27.460938 25.695312 27.246094 25.953125 26.816406 C 26.210938 26.386719 26.339844 25.726562 26.34375 24.84375 Z M 31.820312 27.332031 L 35.347656 27.332031 L 35.347656 29 L 29.808594 29 L 29.808594 19.046875 L 31.820312 19.046875 Z M 31.820312 27.332031 "/>
</g>
</svg>
