<svg xmlns="http://www.w3.org/2000/svg" viewBox="0 0 48 48" width="48" height="48"><path fill="#4db6ac" d="M0,16c0-2.209,1.791-4,4-4h40c2.209,0,4,1.791,4,4v16c0,2.209-1.791,4-4,4H4c-2.209,0-4-1.791-4-4V16z"/><path fill="#fff" d="M15.28 22.418L16.62 19h2.304l-2.338 4.935 2.393 5.018h-2.331l-1.367-3.48-1.36 3.48h-2.331l2.393-5.018L11.637 19h2.304L15.28 22.418zM22.622 19l1.88 7.199L26.375 19H29v9.953h-2.017V26.26l.185-4.15-1.989 6.844h-1.367l-1.989-6.844.184 4.15v2.693h-2.01V19H22.622zM32.623 27.285h3.527v1.668h-5.537V19h2.01V27.285z"/></svg>